<?xml version="1.0" encoding="UTF-8"?>
<!DOCTYPE svg PUBLIC "-//W3C//DTD SVG 1.1//EN" "http://www.w3.org/Graphics/SVG/1.1/DTD/svg11.dtd">
<!-- Creator: CorelDRAW 2019 (64-Bit) -->
<svg xmlns="http://www.w3.org/2000/svg" xml:space="preserve" width="42.3332mm" height="12.6998mm" version="1.1" style="shape-rendering:geometricPrecision; text-rendering:geometricPrecision; image-rendering:optimizeQuality; fill-rule:evenodd; clip-rule:evenodd"
viewBox="0 0 42.3332 12.6998"
 xmlns:xlink="http://www.w3.org/1999/xlink">
 <defs>
  <style type="text/css">
   <![CDATA[
    .fil0 {fill:#FF4F00}
    .fil2 {fill:#FEFEFE;fill-rule:nonzero}
    .fil1 {fill:#201E1E;fill-rule:nonzero}
   ]]>
  </style>
 </defs>
 <g id="Capa_x0020_1">
  <metadata id="CorelCorpID_0Corel-Layer"/>
  <g id="_1986904190384">
   <rect class="fil0" x="-0.0005" y="4.5247" width="7.9763" height="3.6506"/>
   <polygon class="fil1" points="12.5771,5.0038 13.7387,5.0038 13.0132,7.6965 12.2966,7.6965 12.8219,5.7468 11.3726,7.6965 10.4562,7.6965 10.0575,5.7468 9.5322,7.6965 8.8195,7.6965 9.545,5.0038 10.7028,5.0038 11.1215,6.9347 "/>
   <path id="1" class="fil1" d="M16.1145 5.0038l0.6284 2.6927 -0.7995 0 -0.1179 -0.5845 -1.4293 0 -0.4327 0.5845 -0.7995 0 2.0831 -2.6927 0.8674 0zm-0.4189 1.4708l-0.1744 -0.8787 -0.6515 0.8787 0.8259 0z"/>
   <polygon id="2" class="fil1" points="17.0159,5.0038 19.7274,5.0038 19.5444,5.6827 18.5337,5.6827 17.9912,7.6965 17.2784,7.6965 17.8209,5.6827 16.8329,5.6827 "/>
   <polygon id="3" class="fil1" points="22.7445,5.0038 23.4573,5.0038 22.7318,7.6965 22.019,7.6965 22.2963,6.667 20.2937,6.667 20.0164,7.6965 19.3037,7.6965 20.0292,5.0038 20.7419,5.0038 20.4634,6.0372 22.466,6.0372 "/>
   <polygon id="4" class="fil1" points="23.8344,5.0038 24.5471,5.0038 23.8216,7.6965 23.1089,7.6965 "/>
   <polygon id="5" class="fil1" points="27.9564,5.0038 29.118,5.0038 28.3925,7.6965 27.6759,7.6965 28.2012,5.7468 26.7519,7.6965 25.8355,7.6965 25.4368,5.7468 24.9115,7.6965 24.1988,7.6965 24.9243,5.0038 26.0821,5.0038 26.5008,6.9347 "/>
   <path id="6" class="fil1" d="M31.426 5.0038c0.0805,0 0.1704,0.0044 0.2698,0.0132 0.0994,0.0088 0.1978,0.0289 0.2948,0.0604 0.0972,0.0314 0.1881,0.0766 0.2728,0.1357 0.0846,0.0591 0.1525,0.1383 0.2038,0.2376 0.0511,0.0993 0.0808,0.2225 0.0889,0.3696 0.0081,0.1471 -0.0155,0.3237 -0.0711,0.5299 -0.0555,0.2061 -0.127,0.3828 -0.2145,0.5298 -0.0873,0.1471 -0.1834,0.2703 -0.288,0.3696 -0.1048,0.0993 -0.2153,0.1785 -0.3319,0.2376 -0.1165,0.0591 -0.2318,0.1044 -0.3458,0.1358 -0.114,0.0314 -0.2232,0.0515 -0.3274,0.0603 -0.1042,0.0088 -0.1964,0.0132 -0.2769,0.0132l-0.5846 0c-0.0804,0 -0.1704,-0.0044 -0.2699,-0.0132 -0.0994,-0.0088 -0.1977,-0.0289 -0.2948,-0.0603 -0.0972,-0.0314 -0.1881,-0.0767 -0.2728,-0.1358 -0.0845,-0.0591 -0.1525,-0.1383 -0.2036,-0.2376 -0.0513,-0.0993 -0.0809,-0.2225 -0.0891,-0.3696 -0.0081,-0.147 0.0157,-0.3237 0.0712,-0.5298 0.0556,-0.2062 0.1269,-0.3828 0.2144,-0.5299 0.0874,-0.1471 0.1834,-0.2703 0.2882,-0.3696 0.1046,-0.0993 0.2152,-0.1785 0.3317,-0.2376 0.1165,-0.0591 0.2318,-0.1043 0.3458,-0.1357 0.1141,-0.0315 0.2232,-0.0516 0.3274,-0.0604 0.1043,-0.0088 0.1966,-0.0132 0.277,-0.0132l0.5846 0zm-0.3476 2.0177c0.0955,0 0.1792,-0.0189 0.251,-0.0566 0.0717,-0.0377 0.1337,-0.088 0.1858,-0.1509 0.0522,-0.0628 0.096,-0.1345 0.1314,-0.2149 0.0356,-0.0805 0.0649,-0.1634 0.0879,-0.2489 0.023,-0.0855 0.0385,-0.1685 0.0463,-0.2489 0.0078,-0.0805 0.0025,-0.1515 -0.0161,-0.2131 -0.0186,-0.0616 -0.0536,-0.1113 -0.1051,-0.149 -0.0514,-0.0377 -0.125,-0.0565 -0.2205,-0.0565l-0.9768 0c-0.0955,0 -0.1791,0.0188 -0.2509,0.0565 -0.0717,0.0377 -0.1335,0.0874 -0.1853,0.149 -0.0518,0.0616 -0.0955,0.1326 -0.1309,0.2131 -0.0355,0.0804 -0.0648,0.1634 -0.0878,0.2489 -0.023,0.0855 -0.0385,0.1684 -0.0464,0.2489 -0.0078,0.0804 -0.0026,0.1521 0.0156,0.2149 0.0183,0.0629 0.0531,0.1132 0.1046,0.1509 0.0514,0.0377 0.1249,0.0566 0.2204,0.0566l0.9768 0z"/>
   <polygon id="7" class="fil1" points="32.9987,5.0038 35.7102,5.0038 35.5272,5.6827 34.5165,5.6827 33.974,7.6965 33.2612,7.6965 33.8037,5.6827 32.8157,5.6827 "/>
   <path id="8" class="fil1" d="M37.8674 5.0038c0.0805,0 0.1704,0.0044 0.2698,0.0132 0.0994,0.0088 0.1978,0.0289 0.2948,0.0604 0.0972,0.0314 0.1881,0.0766 0.2728,0.1357 0.0846,0.0591 0.1525,0.1383 0.2038,0.2376 0.0511,0.0993 0.0808,0.2225 0.0889,0.3696 0.0081,0.1471 -0.0155,0.3237 -0.0711,0.5299 -0.0555,0.2061 -0.127,0.3828 -0.2145,0.5298 -0.0873,0.1471 -0.1834,0.2703 -0.288,0.3696 -0.1048,0.0993 -0.2153,0.1785 -0.3319,0.2376 -0.1165,0.0591 -0.2318,0.1044 -0.3458,0.1358 -0.114,0.0314 -0.2232,0.0515 -0.3274,0.0603 -0.1042,0.0088 -0.1964,0.0132 -0.2769,0.0132l-0.5846 0c-0.0804,0 -0.1704,-0.0044 -0.2699,-0.0132 -0.0994,-0.0088 -0.1977,-0.0289 -0.2948,-0.0603 -0.0972,-0.0314 -0.1881,-0.0767 -0.2728,-0.1358 -0.0845,-0.0591 -0.1525,-0.1383 -0.2036,-0.2376 -0.0513,-0.0993 -0.0809,-0.2225 -0.0891,-0.3696 -0.0081,-0.147 0.0157,-0.3237 0.0712,-0.5298 0.0556,-0.2062 0.1269,-0.3828 0.2144,-0.5299 0.0874,-0.1471 0.1834,-0.2703 0.2882,-0.3696 0.1046,-0.0993 0.2152,-0.1785 0.3317,-0.2376 0.1165,-0.0591 0.2318,-0.1043 0.3458,-0.1357 0.1141,-0.0315 0.2232,-0.0516 0.3274,-0.0604 0.1043,-0.0088 0.1966,-0.0132 0.277,-0.0132l0.5846 0zm-0.3476 2.0177c0.0955,0 0.1792,-0.0189 0.251,-0.0566 0.0717,-0.0377 0.1337,-0.088 0.1858,-0.1509 0.0522,-0.0628 0.096,-0.1345 0.1314,-0.2149 0.0356,-0.0805 0.0649,-0.1634 0.0879,-0.2489 0.023,-0.0855 0.0385,-0.1685 0.0463,-0.2489 0.0078,-0.0805 0.0025,-0.1515 -0.0161,-0.2131 -0.0186,-0.0616 -0.0536,-0.1113 -0.1051,-0.149 -0.0514,-0.0377 -0.125,-0.0565 -0.2205,-0.0565l-0.9768 0c-0.0955,0 -0.1791,0.0188 -0.2509,0.0565 -0.0717,0.0377 -0.1335,0.0874 -0.1853,0.149 -0.0518,0.0616 -0.0955,0.1326 -0.1309,0.2131 -0.0355,0.0804 -0.0648,0.1634 -0.0878,0.2489 -0.023,0.0855 -0.0385,0.1684 -0.0464,0.2489 -0.0078,0.0804 -0.0026,0.1521 0.0156,0.2149 0.0183,0.0629 0.0531,0.1132 0.1046,0.1509 0.0514,0.0377 0.1249,0.0566 0.2204,0.0566l0.9768 0z"/>
   <path id="9" class="fil1" d="M40.0084 5.8335c-0.0149,0.0553 0.0076,0.0955 0.0675,0.1207 0.0598,0.0251 0.1424,0.0427 0.2479,0.0528 0.1054,0.01 0.2269,0.0163 0.3644,0.0188 0.1376,0.0026 0.2778,0.0095 0.4206,0.0208 0.1428,0.0113 0.2796,0.0308 0.4105,0.0584 0.1307,0.0277 0.2419,0.0723 0.3334,0.1339 0.0916,0.0616 0.157,0.1427 0.1966,0.2433 0.0396,0.1005 0.038,0.23 -0.0047,0.3884 -0.0136,0.0503 -0.0329,0.1056 -0.0579,0.166 -0.0251,0.0603 -0.061,0.1213 -0.1078,0.1829 -0.0467,0.0616 -0.1062,0.1213 -0.1784,0.1791 -0.0721,0.0578 -0.1613,0.1087 -0.2674,0.1527 -0.1061,0.044 -0.2319,0.0792 -0.3773,0.1056 -0.1454,0.0264 -0.3136,0.0396 -0.5046,0.0396l-0.4828 0c-0.191,0 -0.3514,-0.0163 -0.4808,-0.049 -0.1295,-0.0327 -0.2345,-0.0748 -0.3148,-0.1263 -0.0804,-0.0516 -0.1398,-0.1113 -0.178,-0.1792 -0.0383,-0.0679 -0.0633,-0.1364 -0.0748,-0.2055 -0.0115,-0.0691 -0.0127,-0.137 -0.0036,-0.2037 0.0092,-0.0666 0.0205,-0.125 0.0341,-0.1753l0.7128 0c-0.0055,0.0201 -0.0078,0.0452 -0.0072,0.0754 0.0007,0.0302 0.0099,0.0591 0.0276,0.0867 0.0176,0.0277 0.0483,0.0516 0.0919,0.0717 0.0436,0.0201 0.1044,0.0302 0.1823,0.0302l0.9805 0c0.1006,0 0.172,-0.0151 0.214,-0.0453 0.0421,-0.0302 0.0685,-0.0654 0.0794,-0.1056 0.0162,-0.0603 -0.0052,-0.1043 -0.0644,-0.132 -0.0592,-0.0276 -0.1414,-0.0465 -0.2468,-0.0566 -0.1054,-0.01 -0.2278,-0.0157 -0.367,-0.0169 -0.1391,-0.0013 -0.2795,-0.0076 -0.4211,-0.0189 -0.1414,-0.0113 -0.2784,-0.0301 -0.4108,-0.0565 -0.1325,-0.0264 -0.2448,-0.0692 -0.337,-0.1283 -0.0921,-0.0591 -0.158,-0.1389 -0.1976,-0.2394 -0.0395,-0.1006 -0.0379,-0.2301 0.0048,-0.3885 0.021,-0.0779 0.0563,-0.1647 0.1059,-0.2602 0.0497,-0.0956 0.1292,-0.1854 0.2386,-0.2697 0.1095,-0.0842 0.2568,-0.1552 0.4421,-0.213 0.1853,-0.0579 0.4225,-0.0868 0.7117,-0.0868l0.4789 0c0.1936,0 0.3551,0.0164 0.4846,0.049 0.1294,0.0327 0.2342,0.0755 0.3143,0.1283 0.0801,0.0528 0.1394,0.1125 0.178,0.1791 0.0386,0.0666 0.0635,0.1351 0.0748,0.2055 0.0111,0.0704 0.0123,0.1383 0.0035,0.2037 -0.0088,0.0654 -0.0203,0.1244 -0.0346,0.1772l-0.7165 0c0.0055,-0.0201 0.0084,-0.0452 0.0091,-0.0754 0.0005,-0.0302 -0.0087,-0.0591 -0.0277,-0.0867 -0.0189,-0.0277 -0.0495,-0.0516 -0.0919,-0.0717 -0.0424,-0.0201 -0.1038,-0.0301 -0.1842,-0.0301l-0.9806 0c-0.1031,0 -0.1741,0.0144 -0.2133,0.0433 -0.0393,0.0289 -0.0647,0.0648 -0.0762,0.1075z"/>
   <polygon class="fil2" points="4.9231,5.0033 5.0174,5.0033 6.0849,5.0033 7.1523,5.0033 7.1523,5.6823 6.0849,5.6823 6.0849,7.6966 5.3682,7.6966 5.3682,5.7464 4.444,7.6966 3.5274,7.6966 2.6032,5.7464 2.6032,7.6966 1.8903,7.6966 1.8903,5.6823 0.8229,5.6823 0.8229,5.0033 1.8903,5.0033 2.9578,5.0033 3.0483,5.0033 3.9876,6.9346 "/>
  </g>
 </g>
</svg>
